<svg width="65" height="64" viewBox="0 0 65 64" fill="none" xmlns="http://www.w3.org/2000/svg">
<g clip-path="url(#clip0_35_431)">
<path d="M37.8324 24.24L61.3257 28.9067C63.219 29.3067 64.499 30.9067 64.499 32.8V60C64.499 62.2133 62.7124 64 60.499 64H36.499C37.2457 64 37.8324 63.4133 37.8324 62.6666V61.3333H60.499C61.219 61.3333 61.8324 60.7466 61.8324 60V32.8C61.8324 32.1867 61.4057 31.6267 60.7924 31.4933L37.8324 26.96V24.24Z" fill="#1E1E1E"/>
<path d="M52.499 37.3334C53.2457 37.3334 53.8323 37.9201 53.8323 38.6668C53.8323 39.4134 53.2457 40.0001 52.499 40.0001H47.1657C46.419 40.0001 45.8323 39.4134 45.8323 38.6668C45.8323 37.9201 46.419 37.3334 47.1657 37.3334H52.499ZM52.499 45.3334C53.2457 45.3334 53.8323 45.9201 53.8323 46.6668C53.8323 47.4134 53.2457 48.0001 52.499 48.0001H47.1657C46.419 48.0001 45.8323 47.4134 45.8323 46.6668C45.8323 45.9201 46.419 45.3334 47.1657 45.3334H52.499ZM52.499 53.3334C53.2457 53.3334 53.8323 53.9201 53.8323 54.6668C53.8323 55.4134 53.2457 56.0001 52.499 56.0001H47.1657C46.419 56.0001 45.8323 55.4134 45.8323 54.6668C45.8323 53.9201 46.419 53.3334 47.1657 53.3334H52.499ZM37.8323 62.6668C37.8323 63.4134 37.2456 64.0001 36.499 64.0001C35.7523 64.0001 35.1656 63.4134 35.1656 62.6668V25.3334C35.1656 24.9334 35.3523 24.5601 35.6457 24.2934C35.9657 24.0534 36.3657 23.9468 36.7657 24.0268L37.8323 24.2401V61.3334V62.6668Z" fill="#1E1E1E"/>
<path d="M35.1657 61.3334V62.6667C35.1657 63.4134 35.7524 64.0001 36.499 64.0001H25.8324C26.579 64.0001 27.1657 63.4134 27.1657 62.6667V61.3334H35.1657ZM28.499 13.3334C29.2457 13.3334 29.8324 13.92 29.8324 14.6667C29.8324 15.4134 29.2457 16 28.499 16H23.1657C22.419 16 21.8324 15.4134 21.8324 14.6667C21.8324 13.92 22.419 13.3334 23.1657 13.3334H28.499ZM29.8324 22.6667C29.8324 23.4134 29.2457 24 28.499 24H23.1657C22.419 24 21.8324 23.4134 21.8324 22.6667C21.8324 21.92 22.419 21.3334 23.1657 21.3334H28.499C29.2457 21.3334 29.8324 21.92 29.8324 22.6667ZM28.499 29.3334C29.2457 29.3334 29.8324 29.92 29.8324 30.6667C29.8324 31.4134 29.2457 32 28.499 32H23.1657C22.419 32 21.8324 31.4134 21.8324 30.6667C21.8324 29.92 22.419 29.3334 23.1657 29.3334H28.499ZM28.499 37.3334C29.2457 37.3334 29.8324 37.9201 29.8324 38.6667C29.8324 39.4134 29.2457 40.0001 28.499 40.0001H23.1657C22.419 40.0001 21.8324 39.4134 21.8324 38.6667C21.8324 37.9201 22.419 37.3334 23.1657 37.3334H28.499ZM16.499 38.6667C16.499 39.4134 15.9124 40.0001 15.1657 40.0001H9.83236C9.08569 40.0001 8.49902 39.4134 8.49902 38.6667C8.49902 37.9201 9.08569 37.3334 9.83236 37.3334H15.1657C15.9124 37.3334 16.499 37.9201 16.499 38.6667ZM15.1657 13.3334C15.9124 13.3334 16.499 13.92 16.499 14.6667C16.499 15.4134 15.9124 16 15.1657 16H9.83236C9.08569 16 8.49902 15.4134 8.49902 14.6667C8.49902 13.92 9.08569 13.3334 9.83236 13.3334H15.1657ZM15.1657 21.3334C15.9124 21.3334 16.499 21.92 16.499 22.6667C16.499 23.4134 15.9124 24 15.1657 24H9.83236C9.08569 24 8.49902 23.4134 8.49902 22.6667C8.49902 21.92 9.08569 21.3334 9.83236 21.3334H15.1657ZM15.1657 29.3334C15.9124 29.3334 16.499 29.92 16.499 30.6667C16.499 31.4134 15.9124 32 15.1657 32H9.83236C9.08569 32 8.49902 31.4134 8.49902 30.6667C8.49902 29.92 9.08569 29.3334 9.83236 29.3334H15.1657ZM24.499 49.3334C24.499 48.5867 23.8857 48.0001 23.1657 48.0001H15.1657C14.419 48.0001 13.8324 48.5867 13.8324 49.3334V61.3334H11.1657V49.3334C11.1657 47.1201 12.9524 45.3334 15.1657 45.3334H23.1657C25.379 45.3334 27.1657 47.1201 27.1657 49.3334V61.3334H24.499V49.3334Z" fill="#1E1E1E"/>
<path d="M13.8323 61.3334H27.1656V62.6667C27.1656 63.4134 26.579 64 25.8323 64H12.499C11.7523 64 11.1656 63.4134 11.1656 62.6667V61.3334H13.8323Z" fill="#1E1E1E"/>
<path d="M5.16569 0.533363L34.4724 4.9867C36.419 5.3067 37.8324 6.96003 37.8324 8.93336V24.24L36.7657 24.0267C36.3657 23.9467 35.9657 24.0534 35.6457 24.2934C35.3524 24.56 35.1657 24.9334 35.1657 25.3334V8.93336C35.1657 8.2667 34.6857 7.7067 34.0457 7.60003L4.73902 3.17336C4.65902 3.1467 4.57902 3.1467 4.49902 3.1467C4.17902 3.1467 3.88569 3.25336 3.64569 3.4667C3.32569 3.73336 3.16569 4.08003 3.16569 4.48003V60C3.16569 60.7467 3.77902 61.3334 4.49902 61.3334H11.1657V62.6667C11.1657 63.4134 11.7524 64 12.499 64H4.49902C2.28569 64 0.499023 62.2134 0.499023 60V4.48003C0.499023 3.3067 1.00569 2.1867 1.91236 1.44003C2.81902 0.666696 3.99236 0.346696 5.16569 0.533363Z" fill="#1E1E1E"/>
</g>
<defs>
<clipPath id="clip0_35_431">
<rect width="64" height="64" fill="white" transform="translate(0.499023)"/>
</clipPath>
</defs>
</svg>
