<svg width="65" height="64" viewBox="0 0 65 64" fill="none" xmlns="http://www.w3.org/2000/svg">
<g clip-path="url(#clip0_35_440)">
<path d="M13.8484 15.7507C13.1584 15.7507 12.5984 16.3107 12.5984 17.0007C12.5984 17.6907 13.1584 18.2507 13.8484 18.2507C14.5384 18.2507 15.0984 17.6907 15.0984 17.0007C15.0984 16.3107 14.5384 15.7507 13.8484 15.7507Z" fill="#1E1E1E"/>
<path d="M58.9646 26.4412L57.156 22.8239C56.5165 21.5449 55.2314 20.7505 53.8019 20.7505H43.3472V12.0009C43.3472 9.93323 41.6651 8.25098 39.5974 8.25098H3.84887C1.78112 8.25098 0.098999 9.9331 0.098999 12.0009V44.4995C0.098999 46.5671 1.78112 48.2494 3.84887 48.2494H7.59875C7.59875 50.1686 8.32437 51.9212 9.5145 53.2491H1.349C0.658624 53.2491 0.098999 53.8089 0.098999 54.4991C0.098999 55.1894 0.658624 55.7491 1.349 55.7491H62.8465C63.5369 55.7491 64.0965 55.1894 64.0965 54.4991C64.0965 53.8089 63.5369 53.2491 62.8465 53.2491H59.6807C60.871 51.9211 61.5965 50.1686 61.5965 48.2494C61.5965 48.1781 61.5931 48.1072 61.5911 48.0361C63.0488 47.5216 64.0964 46.131 64.0964 44.4995V37.5897C64.0964 36.1311 64.3852 37.4929 58.9646 26.4412ZM57.0741 28.2501L60.824 35.7499H48.347V28.2501H57.0741ZM2.59887 38.2497H5.09875V40.7496H2.59887V38.2497ZM15.0984 53.2491C12.3415 53.2491 10.0986 51.0061 10.0986 48.2494C10.0986 47.9089 10.1324 47.5737 10.1999 47.2479C10.67 44.9311 12.7301 43.2495 15.0984 43.2495C17.4666 43.2495 19.5269 44.931 19.9969 47.2479L19.998 47.2531C20.0645 47.5736 20.0981 47.9089 20.0981 48.2494C20.0981 51.0062 17.8552 53.2491 15.0984 53.2491ZM15.0984 40.7496C11.8957 40.7496 9.06937 42.8012 8.02737 45.7494H3.84887C3.15962 45.7494 2.59887 45.1886 2.59887 44.4994V43.2494H6.34875C7.03912 43.2494 7.59875 42.6896 7.59875 41.9994V36.9996C7.59875 36.3094 7.03912 35.7496 6.34875 35.7496H2.59887V12.0009C2.59887 11.3116 3.15962 10.7509 3.84887 10.7509H39.5974C40.2866 10.7509 40.8474 11.3116 40.8474 12.0009V45.7495H22.1687C21.1249 42.7997 18.2996 40.7496 15.0984 40.7496ZM20.6822 53.2491C21.8725 51.9211 22.598 50.1686 22.598 48.2494H46.597C46.597 50.1686 47.3226 51.9212 48.5127 53.2491H20.6822ZM54.0967 53.2491C51.3399 53.2491 49.097 51.0061 49.097 48.2494C49.097 47.9089 49.1307 47.5737 49.1982 47.2479C49.6684 44.9311 51.7285 43.2495 54.0967 43.2495C56.465 43.2495 58.5252 44.931 58.9953 47.2479L58.9964 47.2531C59.0629 47.5736 59.0965 47.9089 59.0965 48.2494C59.0966 51.0062 56.8536 53.2491 54.0967 53.2491ZM61.5965 44.4995C61.5965 44.9152 61.3916 45.2831 61.0785 45.5106C59.9696 42.6895 57.2109 40.7497 54.0967 40.7497C50.8941 40.7497 48.0677 42.8014 47.0257 45.7495H43.3471V23.2504H53.8018C54.0341 23.2496 54.262 23.314 54.4596 23.4362C54.6573 23.5584 54.8167 23.7335 54.9199 23.9417L55.8241 25.7502H47.0971C46.4067 25.7502 45.8471 26.31 45.8471 27.0002V36.9999C45.8471 37.6901 46.4067 38.2499 47.0971 38.2499H61.5965V44.4995Z" fill="#1E1E1E"/>
<path d="M34.5976 15.7507H18.8483C18.1579 15.7507 17.5983 16.3105 17.5983 17.0007C17.5983 17.691 18.1579 18.2507 18.8483 18.2507H34.5976C35.288 18.2507 35.8476 17.691 35.8476 17.0007C35.8476 16.3105 35.2879 15.7507 34.5976 15.7507ZM34.5976 20.7505H23.848C23.1576 20.7505 22.598 21.3102 22.598 22.0005C22.598 22.6907 23.1576 23.2505 23.848 23.2505H34.5976C35.288 23.2505 35.8476 22.6907 35.8476 22.0005C35.8476 21.3102 35.2879 20.7505 34.5976 20.7505ZM54.0968 45.7495C52.7183 45.7495 51.5969 46.871 51.5969 48.2494C51.5969 49.6279 52.7184 50.7492 54.0968 50.7492C55.4753 50.7492 56.5966 49.6277 56.5966 48.2494C56.5966 46.8709 55.4753 45.7495 54.0968 45.7495ZM15.0984 45.7495C13.7199 45.7495 12.5985 46.871 12.5985 48.2494C12.5985 49.6279 13.72 50.7492 15.0984 50.7492C16.4769 50.7492 17.5983 49.6277 17.5983 48.2494C17.5983 46.8709 16.4769 45.7495 15.0984 45.7495Z" fill="#1E1E1E"/>
</g>
<defs>
<clipPath id="clip0_35_440">
<rect width="64" height="64" fill="white" transform="translate(0.098999)"/>
</clipPath>
</defs>
</svg>
