<svg width="65" height="64" viewBox="0 0 65 64" fill="none" xmlns="http://www.w3.org/2000/svg">
<g clip-path="url(#clip0_36_465)">
<path d="M13.3587 29.6935C9.26452 29.6935 5.93381 26.3931 5.93381 22.3376C5.93381 18.2818 9.26452 14.9813 13.3587 14.9813C17.4525 14.9813 20.7826 18.2813 20.7826 22.3376C20.7826 26.3936 17.4525 29.6935 13.3587 29.6935ZM13.3587 17.0458C10.4026 17.0458 7.99833 19.4198 7.99833 22.3376C7.99833 25.2551 10.4026 27.629 13.3587 27.629C16.3139 27.629 18.7181 25.2551 18.7181 22.3376C18.7181 19.4198 16.3139 17.0458 13.3587 17.0458ZM16.3457 50.0605H3.39704C1.9093 50.0605 0.698975 48.8579 0.698975 47.3793V44.0028C0.698975 37.0905 6.37794 31.4665 13.3587 31.4665C16.1043 31.4665 18.7177 32.3233 20.9142 33.944C21.1345 34.1066 21.2811 34.3501 21.322 34.6208C21.3628 34.8916 21.2944 35.1675 21.1319 35.3878C20.9692 35.608 20.7258 35.7545 20.4552 35.7954C20.1846 35.8362 19.9088 35.768 19.6884 35.6056C17.8492 34.2489 15.6607 33.5311 13.3587 33.5311C7.51652 33.5311 2.76349 38.2291 2.76349 44.0028V47.3793C2.76349 47.7191 3.04775 47.9958 3.39704 47.9958H16.3462C16.9157 47.9958 17.3785 48.458 17.3785 49.0281C17.3785 49.5976 16.9157 50.0603 16.3457 50.0603V50.0605ZM62.0009 49.2792H49.0523C48.4827 49.2792 48.02 48.817 48.02 48.2469C48.02 47.6774 48.4827 47.2147 49.0523 47.2147H62.0014C62.3507 47.2147 62.635 46.9385 62.635 46.5988V43.2223C62.635 37.4476 57.8819 32.7504 52.0397 32.7504C49.5997 32.7504 47.2177 33.5907 45.332 35.1169C44.8894 35.4753 44.2397 35.4072 43.8804 34.9642C43.5221 34.5211 43.5896 33.8709 44.0337 33.5121C46.2852 31.69 49.1284 30.6859 52.0397 30.6859C59.02 30.6859 64.699 36.3094 64.699 43.2223V46.5988C64.699 48.0766 63.4888 49.2792 62.0009 49.2792ZM52.0392 29.1834C47.9454 29.1834 44.6154 25.8836 44.6154 21.8276C44.6154 17.7716 47.9454 14.4712 52.0392 14.4712C56.1334 14.4712 59.4641 17.7712 59.4641 21.8276C59.4641 25.884 56.1329 29.1834 52.0392 29.1834ZM52.0392 16.5357C49.084 16.5357 46.6799 18.9098 46.6799 21.8276C46.6799 24.7454 49.084 27.1189 52.0392 27.1189C54.9954 27.1189 57.3996 24.7454 57.3996 21.8276C57.3996 18.9098 54.9948 16.5357 52.0392 16.5357Z" fill="#1E1E1E"/>
<path d="M46.7091 53.4194H18.689C16.8275 53.4194 15.3135 51.9164 15.3135 50.0685V45.3196C15.3135 35.8286 23.1118 28.1074 32.699 28.1074C42.2863 28.1074 50.0846 35.8286 50.0846 45.3196V50.0685C50.0846 51.9163 48.5705 53.4194 46.7091 53.4194ZM32.699 30.1724C24.2509 30.1724 17.378 36.9677 17.378 45.32V50.069C17.378 50.7782 17.9661 51.3554 18.689 51.3554H46.7086C47.4314 51.3554 48.0195 50.7782 48.0195 50.069V45.32C48.0201 36.9677 41.1472 30.1724 32.699 30.1724ZM32.3402 26.9012C27.0801 26.9012 22.7998 22.6618 22.7998 17.4501C22.7998 12.239 27.0797 8 32.3403 8C37.6013 8 41.8811 12.2394 41.8811 17.4506C41.8811 22.6622 37.6008 26.9012 32.3403 26.9012H32.3402ZM32.3402 10.0645C28.2181 10.0645 24.8643 13.3781 24.8643 17.4506C24.8643 21.5237 28.2181 24.8372 32.3402 24.8372C36.4626 24.8372 39.8164 21.5236 39.8164 17.4506C39.8164 13.3781 36.4626 10.0645 32.3403 10.0645H32.3402Z" fill="#1E1E1E"/>
</g>
<defs>
<clipPath id="clip0_36_465">
<rect width="64" height="64" fill="white" transform="translate(0.698975)"/>
</clipPath>
</defs>
</svg>
