<svg width="80" height="80" viewBox="0 0 80 80" fill="none" xmlns="http://www.w3.org/2000/svg">
<path d="M6.24906 23.5V30C6.24906 30.75 6.74906 31.25 7.49906 31.25C8.24906 31.25 8.74906 30.75 8.74906 30V22.5L39.9991 9.125L71.2491 22.5V47.5C71.2491 48.25 71.7491 48.75 72.4991 48.75C73.2491 48.75 73.7491 48.25 73.7491 47.5V23.5C74.1241 23.625 77.2491 24.25 78.4991 21.5C79.2491 19.625 78.4991 17.375 76.4991 16.625L70.4991 14C69.8741 13.75 69.1241 14 68.8741 14.625C68.6241 15.25 68.8741 16 69.4991 16.25L75.4991 18.875C76.1241 19.125 76.3741 19.875 76.1241 20.5C75.8741 21.125 75.1241 21.375 74.4991 21.125C74.4991 21.125 40.2491 6.25 39.9991 6.375L5.49906 21.125C4.87406 21.375 4.12406 21.125 3.87406 20.5C3.62406 19.875 3.87406 19.125 4.49906 18.875L39.9991 3.625C40.2491 3.5 64.4991 14.125 64.4991 14.125C65.1241 14.375 65.8741 14.125 66.1241 13.5C66.3741 12.875 66.1241 12.125 65.4991 11.875L41.4991 1.5C40.4991 1.125 39.4991 1.125 38.4991 1.5L3.49906 16.5C1.62406 17.375 0.749059 19.5 1.49906 21.375C2.37406 23.25 4.37406 24.125 6.24906 23.5ZM7.49906 33.5C6.74906 33.5 6.24906 34 6.24906 34.75V37.75C6.24906 38.5 6.74906 39 7.49906 39C8.24906 39 8.74906 38.5 8.74906 37.75V34.75C8.74906 34.125 8.24906 33.5 7.49906 33.5Z" fill="#1E1E1E"/>
<path d="M67.4991 47.375C68.2491 47.375 68.7491 46.875 68.7491 46.125V25C68.7491 24.25 68.2491 23.75 67.4991 23.75H12.4991C11.7491 23.75 11.2491 24.25 11.2491 25V65.125C11.2491 65.875 11.7491 66.375 12.4991 66.375C13.2491 66.375 13.7491 65.875 13.7491 65.125V41.25H66.2491V46.125C66.2491 46.75 66.7491 47.375 67.4991 47.375ZM13.7491 38.75V26.25H66.2491V38.75H13.7491Z" fill="#1E1E1E"/>
<path d="M62.4991 28.75H17.4991C16.7491 28.75 16.2491 29.25 16.2491 30C16.2491 30.75 16.7491 31.25 17.4991 31.25H62.4991C63.2491 31.25 63.7491 30.75 63.7491 30C63.7491 29.25 63.2491 28.75 62.4991 28.75ZM35.4991 15.875L39.9991 13.875L41.9991 14.625C42.6241 14.875 43.3741 14.625 43.6241 13.875C43.8741 13.25 43.6241 12.5 42.8741 12.25L39.8741 11L34.3741 13.5C33.7491 13.75 33.4991 14.5 33.7491 15.125C34.3741 16.25 35.3741 16 35.4991 15.875ZM71.7491 50.25C70.9991 49.375 69.8741 48.75 68.7491 48.75H58.7491V47.625C58.7491 45.5 56.9991 43.75 54.8741 43.75C54.1241 43.75 53.6241 44.25 53.6241 45C53.6241 45.75 54.1241 46.25 54.8741 46.25C55.6241 46.25 56.2491 46.875 56.2491 47.625V61.25H34.9991C34.2491 61.25 33.7491 61.75 33.7491 62.5C33.7491 63.25 34.2491 63.75 34.9991 63.75H56.2491V71.25H41.1241C40.4991 68.375 37.9991 66.25 34.9991 66.25C31.9991 66.25 29.4991 68.375 28.8741 71.25H27.6241C26.8741 71.25 26.2491 70.625 26.2491 69.875V63.75H29.9991C30.7491 63.75 31.2491 63.25 31.2491 62.5C31.2491 61.75 30.7491 61.25 29.9991 61.25H26.2491V47.625C26.2491 46.875 26.8741 46.25 27.6241 46.25H49.6241C50.3741 46.25 50.8741 45.75 50.8741 45C50.8741 44.25 50.3741 43.75 49.6241 43.75H27.6241C25.4991 43.75 23.7491 45.5 23.7491 47.625V69.75C23.7491 71.875 25.4991 73.625 27.6241 73.625H28.8741C29.1241 74.5 29.4991 75.375 29.9991 76.125H13.7491V69.875C13.7491 69.125 13.2491 68.625 12.4991 68.625C11.7491 68.625 11.2491 69.125 11.2491 69.875V76.125H8.74915V42.875C8.74915 42.125 8.24915 41.625 7.49915 41.625C6.74915 41.625 6.24915 42.125 6.24915 42.875V76.25H2.49915C1.74915 76.25 1.24915 76.75 1.24915 77.5C1.24915 78.25 1.74915 78.75 2.49915 78.75H54.9991C55.7491 78.75 56.2491 78.25 56.2491 77.5C56.2491 76.75 55.7491 76.25 54.9991 76.25H39.9991C40.4991 75.5 40.9991 74.625 41.1241 73.75H61.3741C61.6241 74.625 61.9991 75.5 62.4991 76.25H59.9991C59.2491 76.25 58.7491 76.75 58.7491 77.5C58.7491 78.25 59.2491 78.75 59.9991 78.75H77.4991C78.2491 78.75 78.7491 78.25 78.7491 77.5C78.7491 76.75 78.2491 76.25 77.4991 76.25H72.4991C72.9991 75.5 73.4991 74.625 73.6241 73.75H75.1241C77.1241 73.75 78.7491 72.125 78.7491 70.125C78.7491 69.375 78.2491 68.875 77.4991 68.875C76.7491 68.875 76.2491 69.375 76.2491 70.125C76.2491 70.75 75.7491 71.25 75.1241 71.25H73.6241C72.9991 68.375 70.4991 66.25 67.4991 66.25C64.4991 66.25 61.9991 68.375 61.3741 71.25H58.7491V51.25H61.2491V60C61.2491 60.75 61.7491 61.25 62.4991 61.25H76.2491V66.125C76.2491 66.875 76.7491 67.375 77.4991 67.375C78.2491 67.375 78.7491 66.875 78.7491 66.125V59.5C78.7491 59.25 71.7491 50.25 71.7491 50.25ZM34.9991 76.25C32.8741 76.25 31.2491 74.625 31.2491 72.5C31.2491 70.375 32.8741 68.75 34.9991 68.75C37.1241 68.75 38.7491 70.375 38.7491 72.5C38.7491 74.625 37.1241 76.25 34.9991 76.25ZM67.4991 68.75C69.6241 68.75 71.2491 70.375 71.2491 72.5C71.2491 74.625 69.6241 76.25 67.4991 76.25C65.3741 76.25 63.7491 74.625 63.7491 72.5C63.7491 70.375 65.3741 68.75 67.4991 68.75ZM63.7491 58.75V51.25H68.7491C69.1241 51.25 69.4991 51.5 69.7491 51.75L74.9991 58.75H63.7491Z" fill="#1E1E1E"/>
<path d="M29.9991 48.75C29.2491 48.75 28.7491 49.25 28.7491 50V52.5C28.7491 53.25 29.2491 53.75 29.9991 53.75C30.7491 53.75 31.2491 53.25 31.2491 52.5V51.25H32.4991C33.2491 51.25 33.7491 50.75 33.7491 50C33.7491 49.25 33.2491 48.75 32.4991 48.75H29.9991ZM52.4991 68.75C53.2491 68.75 53.7491 68.25 53.7491 67.5C53.7491 66.75 53.2491 66.25 52.4991 66.25H44.9991C44.2491 66.25 43.7491 66.75 43.7491 67.5C43.7491 68.25 44.2491 68.75 44.9991 68.75H52.4991ZM62.4991 33.75H17.4991C16.7491 33.75 16.2491 34.25 16.2491 35C16.2491 35.75 16.7491 36.25 17.4991 36.25H62.4991C63.2491 36.25 63.7491 35.75 63.7491 35C63.7491 34.25 63.2491 33.75 62.4991 33.75Z" fill="#1E1E1E"/>
<path d="M34.9991 73.75C35.6895 73.75 36.2491 73.1904 36.2491 72.5C36.2491 71.8096 35.6895 71.25 34.9991 71.25C34.3088 71.25 33.7491 71.8096 33.7491 72.5C33.7491 73.1904 34.3088 73.75 34.9991 73.75Z" fill="#1E1E1E"/>
<path d="M67.4991 73.75C68.1895 73.75 68.7491 73.1904 68.7491 72.5C68.7491 71.8096 68.1895 71.25 67.4991 71.25C66.8088 71.25 66.2491 71.8096 66.2491 72.5C66.2491 73.1904 66.8088 73.75 67.4991 73.75Z" fill="#1E1E1E"/>
</svg>
