<svg width="80" height="81" viewBox="0 0 80 81" fill="none" xmlns="http://www.w3.org/2000/svg">
<g clip-path="url(#clip0_34_349)">
<path d="M46.3293 54.7429V57.7602C46.3293 58.1084 46.5614 58.3405 46.9095 58.3405C47.2577 58.3405 47.4898 58.1084 47.4898 57.7602V54.2787L61.996 48.0701L76.5021 54.2787V65.8837C76.5021 66.2318 76.7342 66.4639 77.0824 66.4639C77.4305 66.4639 77.6626 66.2318 77.6626 65.8837V54.7429C77.8367 54.801 79.2873 55.0911 79.8676 53.8145C80.2157 52.9442 79.8676 51.8997 78.9392 51.5516L76.154 50.3331C75.8639 50.217 75.5157 50.3331 75.3997 50.6232C75.2836 50.9133 75.3997 51.2614 75.6898 51.3775L78.475 52.596C78.7651 52.7121 78.8812 53.0602 78.7651 53.3503C78.6491 53.6405 78.3009 53.7565 78.0108 53.6405C78.0108 53.6405 62.112 46.7355 61.996 46.7935L45.9811 53.6405C45.691 53.7565 45.3429 53.6405 45.2268 53.3503C45.1108 53.0602 45.2268 52.7121 45.5169 52.596L61.996 45.517C62.112 45.459 73.3688 50.3911 73.3688 50.3911C73.6589 50.5071 74.0071 50.3911 74.1231 50.101C74.2392 49.8108 74.1231 49.4627 73.833 49.3466L62.6923 44.5306C62.2281 44.3565 61.7639 44.3565 61.2997 44.5306L45.0527 51.4935C44.1824 51.8997 43.7762 52.8861 44.1243 53.7565C44.5305 54.6269 45.4589 55.0331 46.3293 54.7429ZM46.9095 59.3849C46.5614 59.3849 46.3293 59.617 46.3293 59.9652V61.3577C46.3293 61.7059 46.5614 61.938 46.9095 61.938C47.2577 61.938 47.4898 61.7059 47.4898 61.3577V59.9652C47.4898 59.675 47.2577 59.3849 46.9095 59.3849Z" fill="#1E1E1E"/>
<path d="M74.7614 65.8257C75.1095 65.8257 75.3416 65.5936 75.3416 65.2454V55.4393C75.3416 55.0911 75.1095 54.859 74.7614 54.859H49.2305C48.8824 54.859 48.6503 55.0911 48.6503 55.4393V74.0652C48.6503 74.4133 48.8824 74.6454 49.2305 74.6454C49.5787 74.6454 49.8108 74.4133 49.8108 74.0652V62.9825H74.1811V65.2454C74.1811 65.5356 74.4132 65.8257 74.7614 65.8257ZM49.8108 61.822V56.0195H74.1811V61.822H49.8108Z" fill="#1E1E1E"/>
<path d="M72.4404 57.1799H51.5515C51.2034 57.1799 50.9713 57.412 50.9713 57.7602C50.9713 58.1083 51.2034 58.3404 51.5515 58.3404H72.4404C72.7886 58.3404 73.0207 58.1083 73.0207 57.7602C73.0207 57.412 72.7886 57.1799 72.4404 57.1799ZM59.9071 51.2034L61.996 50.275L62.9244 50.6231C63.2145 50.7392 63.5626 50.6231 63.6787 50.275C63.7947 49.9849 63.6787 49.6367 63.3305 49.5207L61.9379 48.9404L59.3849 50.1009C59.0947 50.217 58.9787 50.5651 59.0947 50.8552C59.3849 51.3775 59.8491 51.2614 59.9071 51.2034ZM76.7342 67.1602C76.3861 66.754 75.8639 66.4639 75.3417 66.4639H70.6997V65.9417C70.6997 64.9553 69.8873 64.1429 68.9009 64.1429C68.5528 64.1429 68.3207 64.375 68.3207 64.7232C68.3207 65.0713 68.5528 65.3034 68.9009 65.3034C69.2491 65.3034 69.5392 65.5935 69.5392 65.9417V72.2664H59.675C59.3268 72.2664 59.0947 72.4985 59.0947 72.8466C59.0947 73.1948 59.3268 73.4269 59.675 73.4269H69.5392V76.9083H62.5182C62.2281 75.5738 61.0676 74.5874 59.675 74.5874C58.2824 74.5874 57.1219 75.5738 56.8318 76.9083H56.2515C55.9034 76.9083 55.6132 76.6182 55.6132 76.2701V73.4269H57.354C57.7021 73.4269 57.9342 73.1948 57.9342 72.8466C57.9342 72.4985 57.7021 72.2664 57.354 72.2664H55.6132V65.9417C55.6132 65.5935 55.9034 65.3034 56.2515 65.3034H66.4639C66.812 65.3034 67.0441 65.0713 67.0441 64.7232C67.0441 64.375 66.812 64.1429 66.4639 64.1429H56.2515C55.2651 64.1429 54.4528 64.9553 54.4528 65.9417V76.212C54.4528 77.1985 55.2651 78.0108 56.2515 78.0108H56.8318C56.9478 78.417 57.1219 78.8232 57.354 79.1713H49.8108V76.2701C49.8108 75.9219 49.5787 75.6898 49.2305 75.6898C48.8824 75.6898 48.6503 75.9219 48.6503 76.2701V79.1713H47.4898V63.7367C47.4898 63.3886 47.2577 63.1565 46.9095 63.1565C46.5614 63.1565 46.3293 63.3886 46.3293 63.7367V79.2293H44.5885C44.2404 79.2293 44.0083 79.4614 44.0083 79.8096C44.0083 80.1577 44.2404 80.3898 44.5885 80.3898H68.9589C69.3071 80.3898 69.5392 80.1577 69.5392 79.8096C69.5392 79.4614 69.3071 79.2293 68.9589 79.2293H61.996C62.2281 78.8812 62.4602 78.475 62.5182 78.0688H71.9182C72.0342 78.475 72.2083 78.8812 72.4404 79.2293H71.2799C70.9318 79.2293 70.6997 79.4614 70.6997 79.8096C70.6997 80.1577 70.9318 80.3898 71.2799 80.3898H79.4034C79.7515 80.3898 79.9836 80.1577 79.9836 79.8096C79.9836 79.4614 79.7515 79.2293 79.4034 79.2293H77.0824C77.3145 78.8812 77.5466 78.475 77.6046 78.0688H78.3009C79.2293 78.0688 79.9836 77.3145 79.9836 76.3861C79.9836 76.038 79.7515 75.8059 79.4034 75.8059C79.0552 75.8059 78.8231 76.038 78.8231 76.3861C78.8231 76.6762 78.591 76.9083 78.3009 76.9083H77.6046C77.3145 75.5738 76.154 74.5874 74.7614 74.5874C73.3688 74.5874 72.2083 75.5738 71.9182 76.9083H70.6997V67.6244H71.8602V71.6861C71.8602 72.0343 72.0923 72.2664 72.4404 72.2664H78.8231V74.5293C78.8231 74.8775 79.0552 75.1096 79.4034 75.1096C79.7515 75.1096 79.9836 74.8775 79.9836 74.5293V71.454C79.9836 71.338 76.7342 67.1602 76.7342 67.1602ZM59.675 79.2293C58.6886 79.2293 57.9342 78.475 57.9342 77.4886C57.9342 76.5022 58.6886 75.7479 59.675 75.7479C60.6614 75.7479 61.4157 76.5022 61.4157 77.4886C61.4157 78.475 60.6614 79.2293 59.675 79.2293ZM74.7614 75.7479C75.7478 75.7479 76.5021 76.5022 76.5021 77.4886C76.5021 78.475 75.7478 79.2293 74.7614 79.2293C73.775 79.2293 73.0207 78.475 73.0207 77.4886C73.0207 76.5022 73.775 75.7479 74.7614 75.7479ZM73.0207 71.1059V67.6244H75.3417C75.5157 67.6244 75.6898 67.7404 75.8059 67.8565L78.2429 71.1059H73.0207Z" fill="#1E1E1E"/>
<path d="M57.354 66.4639C57.0059 66.4639 56.7738 66.696 56.7738 67.0442V68.2047C56.7738 68.5528 57.0059 68.7849 57.354 68.7849C57.7022 68.7849 57.9343 68.5528 57.9343 68.2047V67.6244H58.5145C58.8627 67.6244 59.0948 67.3923 59.0948 67.0442C59.0948 66.696 58.8627 66.4639 58.5145 66.4639H57.354ZM67.7985 75.7479C68.1466 75.7479 68.3787 75.5158 68.3787 75.1677C68.3787 74.8195 68.1466 74.5874 67.7985 74.5874H64.317C63.9689 74.5874 63.7368 74.8195 63.7368 75.1677C63.7368 75.5158 63.9689 75.7479 64.317 75.7479H67.7985ZM72.4405 59.501H51.5516C51.2034 59.501 50.9713 59.7331 50.9713 60.0812C50.9713 60.4294 51.2034 60.6615 51.5516 60.6615H72.4405C72.7886 60.6615 73.0207 60.4294 73.0207 60.0812C73.0207 59.7331 72.7886 59.501 72.4405 59.501Z" fill="#1E1E1E"/>
<path d="M59.675 78.0688C59.9954 78.0688 60.2552 77.809 60.2552 77.4886C60.2552 77.1681 59.9954 76.9083 59.675 76.9083C59.3545 76.9083 59.0947 77.1681 59.0947 77.4886C59.0947 77.809 59.3545 78.0688 59.675 78.0688Z" fill="#1E1E1E"/>
<path d="M74.7614 78.0688C75.0819 78.0688 75.3416 77.809 75.3416 77.4886C75.3416 77.1681 75.0819 76.9083 74.7614 76.9083C74.4409 76.9083 74.1812 77.1681 74.1812 77.4886C74.1812 77.809 74.4409 78.0688 74.7614 78.0688Z" fill="#1E1E1E"/>
<g clip-path="url(#clip1_34_349)">
<path d="M8.80009 28.9998H8.20009C8.04096 28.9998 7.88835 29.063 7.77583 29.1755C7.66331 29.288 7.6001 29.4406 7.6001 29.5998V30.1997C7.6001 30.3589 7.66331 30.5115 7.77583 30.624C7.88835 30.7365 8.04096 30.7997 8.20009 30.7997H8.80009C8.95922 30.7997 9.11183 30.7365 9.22435 30.624C9.33687 30.5115 9.40008 30.3589 9.40008 30.1997V29.5998C9.40008 29.4406 9.33687 29.288 9.22435 29.1755C9.11183 29.063 8.95922 28.9998 8.80009 28.9998ZM36.9999 36.1997H36.3999C36.2407 36.1997 36.0881 36.2629 35.9756 36.3754C35.8631 36.488 35.7999 36.6406 35.7999 36.7997V37.3997C35.7999 37.5588 35.8631 37.7114 35.9756 37.824C36.0881 37.9365 36.2407 37.9997 36.3999 37.9997H36.9999C37.159 37.9997 37.3116 37.9365 37.4241 37.824C37.5366 37.7114 37.5999 37.5588 37.5999 37.3997V36.7997C37.5999 36.6406 37.5366 36.488 37.4241 36.3754C37.3116 36.2629 37.159 36.1997 36.9999 36.1997ZM33.3999 36.1997H32.7999C32.6408 36.1997 32.4882 36.2629 32.3756 36.3754C32.2631 36.488 32.1999 36.6406 32.1999 36.7997V37.3997C32.1999 37.5588 32.2631 37.7114 32.3756 37.824C32.4882 37.9365 32.6408 37.9997 32.7999 37.9997H33.3999C33.559 37.9997 33.7116 37.9365 33.8242 37.824C33.9367 37.7114 33.9999 37.5588 33.9999 37.3997V36.7997C33.9999 36.6406 33.9367 36.488 33.8242 36.3754C33.7116 36.2629 33.559 36.1997 33.3999 36.1997ZM29.7999 36.1997H29.1999C29.0408 36.1997 28.8882 36.2629 28.7757 36.3754C28.6631 36.488 28.5999 36.6406 28.5999 36.7997V37.3997C28.5999 37.5588 28.6631 37.7114 28.7757 37.824C28.8882 37.9365 29.0408 37.9997 29.1999 37.9997H29.7999C29.9591 37.9997 30.1117 37.9365 30.2242 37.824C30.3367 37.7114 30.3999 37.5588 30.3999 37.3997V36.7997C30.3999 36.6406 30.3367 36.488 30.2242 36.3754C30.1117 36.2629 29.9591 36.1997 29.7999 36.1997ZM26.2 36.1997H25.6C25.4408 36.1997 25.2882 36.2629 25.1757 36.3754C25.0632 36.488 25 36.6406 25 36.7997V37.3997C25 37.5588 25.0632 37.7114 25.1757 37.824C25.2882 37.9365 25.4408 37.9997 25.6 37.9997H26.2C26.3591 37.9997 26.5117 37.9365 26.6242 37.824C26.7367 37.7114 26.7999 37.5588 26.7999 37.3997V36.7997C26.7999 36.6406 26.7367 36.488 26.6242 36.3754C26.5117 36.2629 26.3591 36.1997 26.2 36.1997Z" fill="#1E1E1E"/>
<path d="M39.4006 7.99994H34.6V4.99996C34.6001 4.91146 34.5806 4.82404 34.5428 4.74398C34.5051 4.66392 34.4501 4.5932 34.3819 4.53691C34.3136 4.48062 34.2337 4.44015 34.1479 4.4184C34.0621 4.39666 33.9726 4.39418 33.8857 4.41114L15.2858 8.01111L15.2881 8.02259C15.1521 8.0467 15.0289 8.11765 14.9398 8.22312C14.8506 8.32859 14.8012 8.46193 14.8001 8.60001V11C14.8001 11.0787 14.8156 11.1567 14.8457 11.2295C14.8757 11.3023 14.9199 11.3684 14.9755 11.4241C15.0312 11.4798 15.0973 11.524 15.17 11.5542C15.2427 11.5844 15.3207 11.5999 15.3995 11.6H15.4001V15.7999H14.2002C14.1214 15.7999 14.0434 15.8154 13.9706 15.8455C13.8979 15.8755 13.8317 15.9197 13.776 15.9753C13.7203 16.031 13.6761 16.0971 13.6459 16.1698C13.6157 16.2425 13.6002 16.3205 13.6002 16.3993V18.1999H12.4002C12.3214 18.1999 12.2434 18.2153 12.1707 18.2454C12.0979 18.2755 12.0318 18.3197 11.976 18.3753C11.9203 18.431 11.8761 18.4971 11.8459 18.5698C11.8158 18.6425 11.8002 18.7205 11.8002 18.7992V23.5999C11.8001 23.6786 11.8156 23.7566 11.8457 23.8294C11.8758 23.9022 11.9199 23.9683 11.9756 24.024C12.0312 24.0797 12.0973 24.1239 12.17 24.1541C12.2428 24.1843 12.3207 24.1998 12.3995 24.1999H19.6001C19.6789 24.1999 19.7568 24.1845 19.8296 24.1544C19.9024 24.1243 19.9685 24.0801 20.0242 24.0245C20.08 23.9688 20.1242 23.9028 20.1543 23.83C20.1845 23.7573 20.2001 23.6793 20.2001 23.6006V18.7999C20.2002 18.7212 20.1847 18.6432 20.1546 18.5704C20.1245 18.4976 20.0804 18.4315 20.0247 18.3758C19.9691 18.3201 19.903 18.2759 19.8302 18.2457C19.7575 18.2155 19.6795 18.2 19.6008 18.1999H18.4001V16.3999C18.4002 16.3212 18.3847 16.2432 18.3546 16.1704C18.3245 16.0977 18.2804 16.0315 18.2247 15.9758C18.1691 15.9201 18.103 15.8759 18.0303 15.8457C17.9575 15.8155 17.8795 15.8 17.8008 15.7999H16.6001V11.6H27.9007L24.4853 33.7998H23.2001C23.1213 33.7998 23.0433 33.8152 22.9706 33.8453C22.8978 33.8754 22.8317 33.9195 22.776 33.9752C22.7202 34.0308 22.676 34.0969 22.6459 34.1697C22.6157 34.2424 22.6001 34.3204 22.6001 34.3991V39.7998C22.6 39.8785 22.6155 39.9565 22.6456 40.0293C22.6757 40.102 22.7198 40.1682 22.7755 40.2239C22.8311 40.2796 22.8972 40.3238 22.9699 40.354C23.0427 40.3842 23.1207 40.3997 23.1994 40.3998H39.4C39.4787 40.3998 39.5567 40.3843 39.6295 40.3542C39.7022 40.3242 39.7684 40.28 39.8241 40.2244C39.8798 40.1687 39.924 40.1026 39.9542 40.0299C39.9844 39.9572 39.9999 39.8792 39.9999 39.8004V34.3998C40 34.3211 39.9845 34.2431 39.9544 34.1703C39.9243 34.0975 39.8802 34.0314 39.8246 33.9757C39.7689 33.92 39.7028 33.8757 39.6301 33.8456C39.5573 33.8154 39.4794 33.7998 39.4006 33.7998H38.1147L34.6994 11.6H39.4C39.4787 11.6 39.5567 11.5846 39.6295 11.5545C39.7022 11.5244 39.7684 11.4802 39.8241 11.4246C39.8798 11.3689 39.924 11.3029 39.9542 11.2301C39.9844 11.1574 39.9999 11.0794 39.9999 11.0007V8.60001C40 8.52125 39.9846 8.44325 39.9545 8.37047C39.9244 8.29769 39.8802 8.23155 39.8246 8.17583C39.7689 8.1201 39.7028 8.07589 39.6301 8.04571C39.5574 8.01553 39.4794 7.99998 39.4006 7.99994ZM33.4 5.72708V7.99994H21.6569L33.4 5.72708ZM19.0001 19.3998V22.9998H13.0002V19.3998H19.0001ZM17.2001 16.9999V18.1999H14.8001V16.9999H17.2001ZM27.868 19.7047L34.3861 22.9635L26.8601 26.2563L27.868 19.7047ZM33.1592 15.2492L28.1695 17.7442L28.831 13.4449L33.1592 15.2492ZM29.0189 12.2232L29.1148 11.5999H33.4853L33.8938 14.2556L29.0189 12.2232ZM38.8 34.9997V39.1997H23.8001V34.9997H38.8ZM36.9004 33.7997H25.6997L26.5799 28.0777L36.8517 33.4834L36.9004 33.7997ZM36.6248 32.0081L27.5828 27.2496L35.3687 23.8432L36.6248 32.0081ZM35.0804 21.9692L28.7419 18.7999L34.175 16.0834L35.0804 21.9692ZM38.8 10.3999H16.0001V9.19993H38.8V10.3999Z" fill="#1E1E1E"/>
<path d="M20.8944 32.2817C20.8404 32.1954 20.7655 32.1243 20.6765 32.075C20.5875 32.0257 20.4875 31.9998 20.3858 31.9998H11.8001V27.1998C11.8002 27.1211 11.7847 27.0431 11.7546 26.9703C11.7245 26.8976 11.6804 26.8314 11.6247 26.7757C11.5691 26.72 11.503 26.6758 11.4302 26.6456C11.3575 26.6154 11.2795 26.5999 11.2008 26.5999H5.80015C5.7214 26.5998 5.64341 26.6153 5.57064 26.6454C5.49787 26.6755 5.43173 26.7196 5.37602 26.7752C5.3203 26.8309 5.27609 26.897 5.24592 26.9697C5.21574 27.0425 5.20019 27.1204 5.20015 27.1992V31.9998H4.60016C4.49944 31.9997 4.40032 32.025 4.31195 32.0733C4.22357 32.1216 4.14879 32.1914 4.09449 32.2762C4.0402 32.3611 4.00814 32.4582 4.00127 32.5587C3.99441 32.6592 4.01296 32.7598 4.05521 32.8512L6.97614 39.1813C6.91744 39.1914 6.85814 39.1976 6.79862 39.1998C6.60796 39.1992 6.41957 39.1583 6.2458 39.0799C6.07202 39.0014 5.91679 38.8871 5.79025 38.7445C5.55653 38.5074 5.27779 38.3194 4.9704 38.1915C4.66301 38.0636 4.33317 37.9984 4.00024 37.9998V39.1998C4.1909 39.2003 4.37929 39.2412 4.55306 39.3196C4.72683 39.3981 4.88207 39.5124 5.00861 39.655C5.9911 40.6436 7.58896 40.6486 8.57753 39.6661L8.58863 39.655C9.07935 39.0982 9.92842 39.0447 10.4852 39.5354C10.5276 39.5727 10.5675 39.6126 10.6048 39.655C11.5877 40.6438 13.186 40.6486 14.1747 39.6657L14.1849 39.6556C14.6778 39.0974 15.53 39.0445 16.0882 39.5375C16.13 39.5744 16.1694 39.6138 16.2063 39.6556C17.1918 40.645 18.7928 40.6481 19.7822 39.6627L19.7893 39.6556C19.9162 39.5128 20.0718 39.3983 20.246 39.3198C20.4202 39.2412 20.609 39.2003 20.8 39.1998V37.9998C20.467 37.9983 20.137 38.0634 19.8294 38.1912C19.5218 38.319 19.2428 38.5069 19.0088 38.7439C18.8819 38.8868 18.7261 39.0013 18.5519 39.0799C18.3776 39.1584 18.1887 39.1993 17.9975 39.1998C17.9496 39.1974 17.9018 39.1924 17.8544 39.1849L20.9254 32.8617C20.9698 32.7703 20.9903 32.6691 20.9848 32.5677C20.9794 32.4662 20.9483 32.3678 20.8944 32.2817ZM6.40014 27.7998H10.6001V31.9998H6.40014V27.7998ZM16.8077 38.5941C16.3636 38.201 15.7881 37.9889 15.195 37.9998C14.862 37.9983 14.5321 38.0634 14.2246 38.1912C13.9171 38.319 13.6383 38.5069 13.4044 38.744C12.9133 39.3014 12.0633 39.3551 11.506 38.864C11.4637 38.8267 11.4238 38.7869 11.3865 38.7446C11.1528 38.5075 10.874 38.3194 10.5666 38.1916C10.2592 38.0637 9.9294 37.9985 9.59647 37.9998C9.01732 37.9887 8.45449 38.192 8.01616 38.5707L5.53773 33.1999H19.4272L16.8077 38.5941Z" fill="#1E1E1E"/>
</g>
<g clip-path="url(#clip2_34_349)">
<path d="M64.2398 28.4352L68.1889 26.5937L64.7907 35.9302L55.4531 32.5325L59.4512 30.6682C55.3861 23.4279 48.6514 19.1871 42.8965 20.0772C43.5647 19.4922 44.3096 18.9997 45.1294 18.6174C51.3195 15.7309 59.5541 20.0885 64.2398 28.4352Z" fill="#1E1E1E"/>
</g>
<g clip-path="url(#clip3_34_349)">
<path d="M27.6219 64.9829L26.716 69.245L35.0488 63.8337L29.6376 55.4997L28.7205 59.8148C20.7513 57.4825 15.1042 51.8744 14.6769 46.0668C14.2572 46.8494 13.9449 47.686 13.7568 48.5708C12.3368 55.2516 18.4351 62.2949 27.6219 64.9829Z" fill="#1E1E1E"/>
</g>
</g>
<defs>
<clipPath id="clip0_34_349">
<rect width="80" height="80" fill="white" transform="translate(-0.000976562 0.400024)"/>
</clipPath>
<clipPath id="clip1_34_349">
<rect width="40" height="40" fill="white" transform="translate(0 0.400024)"/>
</clipPath>
<clipPath id="clip2_34_349">
<rect width="24" height="24" fill="white" transform="translate(51.1428 42.2943) rotate(-115)"/>
</clipPath>
<clipPath id="clip3_34_349">
<rect width="24" height="24" fill="white" transform="matrix(-0.978148 -0.207912 -0.207912 0.978148 38.1797 49.104)"/>
</clipPath>
</defs>
</svg>
