<svg width="80" height="81" viewBox="0 0 80 81" fill="none" xmlns="http://www.w3.org/2000/svg">
<g clip-path="url(#clip0_34_368)">
<path d="M2.3283 11.143V14.1602C2.3283 14.5084 2.5604 14.7405 2.90855 14.7405C3.2567 14.7405 3.4888 14.5084 3.4888 14.1602V10.6788L17.995 4.47011L32.5012 10.6788V22.2837C32.5012 22.6318 32.7333 22.8639 33.0814 22.8639C33.4296 22.8639 33.6617 22.6318 33.6617 22.2837V11.143C33.8357 11.201 35.2863 11.4911 35.8666 10.2146C36.2147 9.34419 35.8666 8.29974 34.9382 7.95159L32.153 6.73308C31.8629 6.61703 31.5147 6.73308 31.3987 7.0232C31.2826 7.31332 31.3987 7.66147 31.6888 7.77752L34.474 8.99604C34.7641 9.11209 34.8802 9.46024 34.7641 9.75036C34.6481 10.0405 34.2999 10.1565 34.0098 10.0405C34.0098 10.0405 18.111 3.13554 17.995 3.19357L1.98015 10.0405C1.69003 10.1565 1.34188 10.0405 1.22583 9.75036C1.10978 9.46024 1.22583 9.11209 1.51596 8.99604L17.995 1.91702C18.111 1.859 29.3678 6.7911 29.3678 6.7911C29.6579 6.90715 30.0061 6.7911 30.1221 6.50098C30.2382 6.21085 30.1221 5.86271 29.832 5.74666L18.6913 0.930604C18.2271 0.75653 17.7629 0.75653 17.2987 0.930604L1.05176 7.89357C0.181387 8.29974 -0.224786 9.28616 0.123363 10.1565C0.529536 11.0269 1.45793 11.4331 2.3283 11.143ZM2.90855 15.7849C2.5604 15.7849 2.3283 16.017 2.3283 16.3652V17.7578C2.3283 18.1059 2.5604 18.338 2.90855 18.338C3.2567 18.338 3.4888 18.1059 3.4888 17.7578V16.3652C3.4888 16.0751 3.2567 15.7849 2.90855 15.7849Z" fill="#1E1E1E"/>
<path d="M30.7604 22.2257C31.1086 22.2257 31.3407 21.9936 31.3407 21.6455V11.8393C31.3407 11.4911 31.1086 11.259 30.7604 11.259H5.22954C4.88139 11.259 4.64929 11.4911 4.64929 11.8393V30.4652C4.64929 30.8134 4.88139 31.0455 5.22954 31.0455C5.57769 31.0455 5.80979 30.8134 5.80979 30.4652V19.3825H30.1802V21.6455C30.1802 21.9356 30.4123 22.2257 30.7604 22.2257ZM5.80979 18.222V12.4195H30.1802V18.222H5.80979Z" fill="#1E1E1E"/>
<path d="M28.4394 13.58H7.55054C7.20239 13.58 6.97029 13.8121 6.97029 14.1602C6.97029 14.5084 7.20239 14.7405 7.55054 14.7405H28.4394C28.7876 14.7405 29.0197 14.5084 29.0197 14.1602C29.0197 13.8121 28.7876 13.58 28.4394 13.58ZM15.9061 7.60342L17.995 6.67502L18.9234 7.02317C19.2135 7.13922 19.5617 7.02317 19.6777 6.67502C19.7938 6.3849 19.6777 6.03675 19.3296 5.9207L17.937 5.34045L15.3839 6.50095C15.0938 6.617 14.9777 6.96515 15.0938 7.25527C15.3839 7.77749 15.8481 7.66144 15.9061 7.60342ZM32.7333 23.5602C32.3851 23.154 31.8629 22.8639 31.3407 22.8639H26.6987V22.3417C26.6987 21.3553 25.8864 20.5429 24.8999 20.5429C24.5518 20.5429 24.3197 20.775 24.3197 21.1232C24.3197 21.4713 24.5518 21.7034 24.8999 21.7034C25.2481 21.7034 25.5382 21.9935 25.5382 22.3417V28.6664H15.674C15.3259 28.6664 15.0938 28.8985 15.0938 29.2466C15.0938 29.5948 15.3259 29.8269 15.674 29.8269H25.5382V33.3084H18.5172C18.2271 31.9738 17.0666 30.9874 15.674 30.9874C14.2814 30.9874 13.1209 31.9738 12.8308 33.3084H12.2505C11.9024 33.3084 11.6123 33.0182 11.6123 32.6701V29.8269H13.353C13.7012 29.8269 13.9333 29.5948 13.9333 29.2466C13.9333 28.8985 13.7012 28.6664 13.353 28.6664H11.6123V22.3417C11.6123 21.9935 11.9024 21.7034 12.2505 21.7034H22.4629C22.811 21.7034 23.0431 21.4713 23.0431 21.1232C23.0431 20.775 22.811 20.5429 22.4629 20.5429H12.2505C11.2641 20.5429 10.4518 21.3553 10.4518 22.3417V32.6121C10.4518 33.5985 11.2641 34.4108 12.2505 34.4108H12.8308C12.9468 34.817 13.1209 35.2232 13.353 35.5713H5.8098V32.6701C5.8098 32.322 5.5777 32.0899 5.22955 32.0899C4.8814 32.0899 4.6493 32.322 4.6493 32.6701V35.5713H3.48881V20.1368C3.48881 19.7886 3.25671 19.5565 2.90856 19.5565C2.56041 19.5565 2.32831 19.7886 2.32831 20.1368V35.6294H0.587572C0.239423 35.6294 0.00732422 35.8615 0.00732422 36.2096C0.00732422 36.5578 0.239423 36.7899 0.587572 36.7899H24.958C25.3061 36.7899 25.5382 36.5578 25.5382 36.2096C25.5382 35.8615 25.3061 35.6294 24.958 35.6294H17.995C18.2271 35.2812 18.4592 34.875 18.5172 34.4689H27.9172C28.0333 34.875 28.2073 35.2812 28.4394 35.6294H27.2789C26.9308 35.6294 26.6987 35.8615 26.6987 36.2096C26.6987 36.5578 26.9308 36.7899 27.2789 36.7899H35.4024C35.7506 36.7899 35.9827 36.5578 35.9827 36.2096C35.9827 35.8615 35.7506 35.6294 35.4024 35.6294H33.0814C33.3135 35.2812 33.5456 34.875 33.6036 34.4689H34.2999C35.2283 34.4689 35.9827 33.7145 35.9827 32.7861C35.9827 32.438 35.7506 32.2059 35.4024 32.2059C35.0543 32.2059 34.8222 32.438 34.8222 32.7861C34.8222 33.0763 34.5901 33.3084 34.2999 33.3084H33.6036C33.3135 31.9738 32.153 30.9874 30.7604 30.9874C29.3678 30.9874 28.2073 31.9738 27.9172 33.3084H26.6987V24.0244H27.8592V28.0861C27.8592 28.4343 28.0913 28.6664 28.4394 28.6664H34.8222V30.9294C34.8222 31.2775 35.0543 31.5096 35.4024 31.5096C35.7506 31.5096 35.9827 31.2775 35.9827 30.9294V27.854C35.9827 27.738 32.7333 23.5602 32.7333 23.5602ZM15.674 35.6294C14.6876 35.6294 13.9333 34.875 13.9333 33.8886C13.9333 32.9022 14.6876 32.1479 15.674 32.1479C16.6604 32.1479 17.4147 32.9022 17.4147 33.8886C17.4147 34.875 16.6604 35.6294 15.674 35.6294ZM30.7604 32.1479C31.7469 32.1479 32.5012 32.9022 32.5012 33.8886C32.5012 34.875 31.7469 35.6294 30.7604 35.6294C29.774 35.6294 29.0197 34.875 29.0197 33.8886C29.0197 32.9022 29.774 32.1479 30.7604 32.1479ZM29.0197 27.5059V24.0244H31.3407C31.5148 24.0244 31.6888 24.1405 31.8049 24.2565L34.2419 27.5059H29.0197Z" fill="#1E1E1E"/>
<path d="M13.3531 22.864C13.0049 22.864 12.7728 23.0961 12.7728 23.4442V24.6047C12.7728 24.9529 13.0049 25.185 13.3531 25.185C13.7012 25.185 13.9333 24.9529 13.9333 24.6047V24.0245H14.5136C14.8617 24.0245 15.0938 23.7924 15.0938 23.4442C15.0938 23.0961 14.8617 22.864 14.5136 22.864H13.3531ZM23.7975 32.1479C24.1457 32.1479 24.3778 31.9158 24.3778 31.5677C24.3778 31.2195 24.1457 30.9874 23.7975 30.9874H20.316C19.9679 30.9874 19.7358 31.2195 19.7358 31.5677C19.7358 31.9158 19.9679 32.1479 20.316 32.1479H23.7975ZM28.4395 15.901H7.55058C7.20244 15.901 6.97034 16.1331 6.97034 16.4812C6.97034 16.8294 7.20244 17.0615 7.55058 17.0615H28.4395C28.7876 17.0615 29.0197 16.8294 29.0197 16.4812C29.0197 16.1331 28.7876 15.901 28.4395 15.901Z" fill="#1E1E1E"/>
<path d="M15.674 34.4688C15.9945 34.4688 16.2542 34.2091 16.2542 33.8886C16.2542 33.5681 15.9945 33.3083 15.674 33.3083C15.3535 33.3083 15.0938 33.5681 15.0938 33.8886C15.0938 34.2091 15.3535 34.4688 15.674 34.4688Z" fill="#1E1E1E"/>
<path d="M30.7604 34.4688C31.0809 34.4688 31.3407 34.2091 31.3407 33.8886C31.3407 33.5681 31.0809 33.3083 30.7604 33.3083C30.44 33.3083 30.1802 33.5681 30.1802 33.8886C30.1802 34.2091 30.44 34.4688 30.7604 34.4688Z" fill="#1E1E1E"/>
<g clip-path="url(#clip1_34_368)">
<path d="M48.7991 69.3998H48.1991C48.04 69.3998 47.8874 69.463 47.7749 69.5755C47.6623 69.688 47.5991 69.8406 47.5991 69.9998V70.5998C47.5991 70.7589 47.6623 70.9115 47.7749 71.024C47.8874 71.1366 48.04 71.1998 48.1991 71.1998H48.7991C48.9582 71.1998 49.1109 71.1366 49.2234 71.024C49.3359 70.9115 49.3991 70.7589 49.3991 70.5998V69.9998C49.3991 69.8406 49.3359 69.688 49.2234 69.5755C49.1109 69.463 48.9582 69.3998 48.7991 69.3998ZM76.9989 76.5997H76.3989C76.2398 76.5997 76.0872 76.6629 75.9746 76.7755C75.8621 76.888 75.7989 77.0406 75.7989 77.1997V77.7997C75.7989 77.9588 75.8621 78.1115 75.9746 78.224C76.0872 78.3365 76.2398 78.3997 76.3989 78.3997H76.9989C77.158 78.3997 77.3106 78.3365 77.4231 78.224C77.5357 78.1115 77.5989 77.9588 77.5989 77.7997V77.1997C77.5989 77.0406 77.5357 76.888 77.4231 76.7755C77.3106 76.6629 77.158 76.5997 76.9989 76.5997ZM73.3989 76.5997H72.7989C72.6398 76.5997 72.4872 76.6629 72.3747 76.7755C72.2621 76.888 72.1989 77.0406 72.1989 77.1997V77.7997C72.1989 77.9588 72.2621 78.1115 72.3747 78.224C72.4872 78.3365 72.6398 78.3997 72.7989 78.3997H73.3989C73.558 78.3997 73.7107 78.3365 73.8232 78.224C73.9357 78.1115 73.9989 77.9588 73.9989 77.7997V77.1997C73.9989 77.0406 73.9357 76.888 73.8232 76.7755C73.7107 76.6629 73.558 76.5997 73.3989 76.5997ZM69.7989 76.5997H69.1989C69.0398 76.5997 68.8872 76.6629 68.7747 76.7755C68.6622 76.888 68.599 77.0406 68.599 77.1997V77.7997C68.599 77.9588 68.6622 78.1115 68.7747 78.224C68.8872 78.3365 69.0398 78.3997 69.1989 78.3997H69.7989C69.9581 78.3997 70.1107 78.3365 70.2232 78.224C70.3357 78.1115 70.3989 77.9588 70.3989 77.7997V77.1997C70.3989 77.0406 70.3357 76.888 70.2232 76.7755C70.1107 76.6629 69.9581 76.5997 69.7989 76.5997ZM66.199 76.5997H65.599C65.4398 76.5997 65.2872 76.6629 65.1747 76.7755C65.0622 76.888 64.999 77.0406 64.999 77.1997V77.7997C64.999 77.9588 65.0622 78.1115 65.1747 78.224C65.2872 78.3365 65.4398 78.3997 65.599 78.3997H66.199C66.3581 78.3997 66.5107 78.3365 66.6232 78.224C66.7358 78.1115 66.799 77.9588 66.799 77.7997V77.1997C66.799 77.0406 66.7358 76.888 66.6232 76.7755C66.5107 76.6629 66.3581 76.5997 66.199 76.5997Z" fill="#1E1E1E"/>
<path d="M79.3997 48.4H74.599V45.4C74.5991 45.3115 74.5796 45.2241 74.5419 45.144C74.5041 45.0639 74.4492 44.9932 74.3809 44.9369C74.3126 44.8806 74.2327 44.8402 74.1469 44.8184C74.0611 44.7967 73.9716 44.7942 73.8847 44.8112L55.2849 48.4111L55.2871 48.4226C55.1512 48.4467 55.0279 48.5177 54.9388 48.6231C54.8497 48.7286 54.8003 48.862 54.7992 49V51.4C54.7991 51.4788 54.8146 51.5567 54.8447 51.6295C54.8748 51.7023 54.9189 51.7684 54.9746 51.8241C55.0302 51.8799 55.0963 51.9241 55.169 51.9542C55.2418 51.9844 55.3197 52 55.3985 52H55.3992V56.2H54.1992C54.1204 56.1999 54.0424 56.2154 53.9697 56.2455C53.8969 56.2756 53.8308 56.3197 53.775 56.3754C53.7193 56.431 53.6751 56.4971 53.6449 56.5698C53.6148 56.6426 53.5992 56.7205 53.5992 56.7993V58.6H52.3992C52.3204 58.5999 52.2425 58.6154 52.1697 58.6455C52.0969 58.6756 52.0308 58.7197 51.9751 58.7753C51.9193 58.831 51.8751 58.8971 51.845 58.9698C51.8148 59.0426 51.7992 59.1205 51.7992 59.1993V63.9999C51.7991 64.0787 51.8146 64.1566 51.8447 64.2294C51.8748 64.3022 51.9189 64.3683 51.9746 64.424C52.0302 64.4798 52.0963 64.524 52.1691 64.5541C52.2418 64.5843 52.3198 64.5999 52.3985 64.5999H59.5991C59.6779 64.6 59.7559 64.5845 59.8286 64.5544C59.9014 64.5243 59.9675 64.4802 60.0233 64.4245C60.079 64.3689 60.1232 64.3028 60.1534 64.23C60.1835 64.1573 60.1991 64.0793 60.1991 64.0006V59.1999C60.1992 59.1212 60.1837 59.0432 60.1536 58.9704C60.1235 58.8977 60.0794 58.8315 60.0237 58.7758C59.9681 58.7201 59.902 58.6759 59.8293 58.6457C59.7565 58.6155 59.6786 58.6 59.5998 58.6H58.3991V56.8C58.3992 56.7212 58.3837 56.6432 58.3536 56.5705C58.3235 56.4977 58.2794 56.4316 58.2238 56.3758C58.1681 56.3201 58.102 56.2759 58.0293 56.2457C57.9565 56.2156 57.8786 56.2 57.7998 56.2H56.5992V52H67.8997L64.4844 74.1998H63.1991C63.1204 74.1998 63.0424 74.2152 62.9696 74.2453C62.8968 74.2754 62.8307 74.3196 62.775 74.3752C62.7193 74.4309 62.675 74.497 62.6449 74.5697C62.6147 74.6424 62.5991 74.7204 62.5991 74.7991V80.1998C62.5991 80.2785 62.6145 80.3565 62.6446 80.4293C62.6747 80.5021 62.7188 80.5682 62.7745 80.6239C62.8301 80.6796 62.8962 80.7238 62.969 80.754C63.0417 80.7842 63.1197 80.7997 63.1984 80.7998H79.399C79.4777 80.7998 79.5557 80.7844 79.6285 80.7543C79.7013 80.7242 79.7674 80.68 79.8231 80.6244C79.8788 80.5687 79.923 80.5027 79.9532 80.4299C79.9834 80.3572 79.9989 80.2792 79.999 80.2005V74.7998C79.999 74.7211 79.9836 74.6431 79.9535 74.5703C79.9234 74.4975 79.8792 74.4314 79.8236 74.3757C79.7679 74.32 79.7018 74.2758 79.6291 74.2456C79.5564 74.2154 79.4784 74.1999 79.3997 74.1998H78.1137L74.6984 52H79.399C79.4777 52.0001 79.5557 51.9846 79.6285 51.9545C79.7013 51.9244 79.7674 51.8803 79.8231 51.8246C79.8788 51.769 79.923 51.7029 79.9532 51.6301C79.9834 51.5574 79.9989 51.4794 79.999 51.4007V49C79.999 48.9213 79.9836 48.8433 79.9535 48.7705C79.9234 48.6977 79.8793 48.6316 79.8236 48.5759C79.768 48.5201 79.7019 48.4759 79.6291 48.4457C79.5564 48.4156 79.4784 48.4 79.3997 48.4ZM73.399 46.1271V48.4H61.6559L73.399 46.1271ZM58.9991 59.7999V63.3998H52.9992V59.7999H58.9991ZM57.1992 57.3999V58.5999H54.7992V57.3999H57.1992ZM67.867 60.1047L74.3851 63.3635L66.8591 66.6563L67.867 60.1047ZM73.1582 55.6492L68.1686 58.1443L68.83 53.8449L73.1582 55.6492ZM69.0179 52.6233L69.1139 51.9999H73.4843L73.8928 54.6556L69.0179 52.6233ZM78.799 75.3997V79.5997H63.7991V75.3997H78.799ZM76.8994 74.1998H65.6987L66.579 68.4777L76.8507 73.8834L76.8994 74.1998ZM76.6238 72.4081L67.5818 67.6496L75.3677 64.2432L76.6238 72.4081ZM75.0795 62.3692L68.7409 59.1999L74.174 56.4834L75.0795 62.3692ZM78.799 50.7999H55.9992V49.6H78.799V50.7999Z" fill="#1E1E1E"/>
<path d="M60.8934 72.6817C60.8395 72.5955 60.7645 72.5244 60.6755 72.4751C60.5866 72.4258 60.4865 72.3999 60.3848 72.3998H51.7991V67.5999C51.7992 67.5211 51.7837 67.4431 51.7536 67.3704C51.7235 67.2976 51.6794 67.2315 51.6237 67.1757C51.5681 67.12 51.502 67.0758 51.4293 67.0456C51.3565 67.0155 51.2786 66.9999 51.1998 66.9999H45.7992C45.7204 66.9998 45.6424 67.0153 45.5697 67.0454C45.4969 67.0755 45.4308 67.1196 45.375 67.1753C45.3193 67.2309 45.2751 67.297 45.2449 67.3697C45.2148 67.4425 45.1992 67.5204 45.1992 67.5992V72.3998H44.5992C44.4985 72.3997 44.3993 72.425 44.311 72.4733C44.2226 72.5217 44.1478 72.5914 44.0935 72.6763C44.0392 72.7611 44.0072 72.8582 44.0003 72.9587C43.9934 73.0592 44.012 73.1598 44.0542 73.2512L46.9752 79.5813C46.9165 79.5914 46.8572 79.5976 46.7976 79.5998C46.607 79.5992 46.4186 79.5583 46.2448 79.4799C46.071 79.4014 45.9158 79.2872 45.7893 79.1445C45.5556 78.9074 45.2768 78.7194 44.9694 78.5915C44.662 78.4636 44.3322 78.3984 43.9993 78.3998V79.5998C44.1899 79.6004 44.3783 79.6412 44.5521 79.7197C44.7259 79.7981 44.8811 79.9124 45.0076 80.055C45.9901 81.0436 47.588 81.0486 48.5766 80.0661L48.5877 80.055C49.0784 79.4982 49.9274 79.4447 50.4842 79.9354C50.5266 79.9728 50.5665 80.0127 50.6039 80.055C51.5867 81.0438 53.185 81.0486 54.1738 80.0657L54.1839 80.0556C54.6769 79.4974 55.529 79.4445 56.0872 79.9375C56.129 79.9744 56.1684 80.0139 56.2053 80.0556C57.1908 81.045 58.7918 81.0482 59.7812 80.0627L59.7883 80.0556C59.9152 79.9128 60.0708 79.7983 60.245 79.7198C60.4192 79.6412 60.608 79.6003 60.7991 79.5998V78.3998C60.466 78.3984 60.136 78.4635 59.8284 78.5912C59.5208 78.719 59.2419 78.9069 59.0078 79.1439C58.8809 79.2868 58.7252 79.4013 58.5509 79.4799C58.3766 79.5584 58.1877 79.5993 57.9966 79.5998C57.9486 79.5974 57.9009 79.5924 57.8535 79.5849L60.9245 73.2617C60.9688 73.1703 60.9893 73.0692 60.9839 72.9677C60.9784 72.8662 60.9473 72.7678 60.8934 72.6817ZM46.3992 68.1999H50.5991V72.3998H46.3992V68.1999ZM56.8068 78.9941C56.3626 78.601 55.7871 78.3889 55.194 78.3999C54.8611 78.3984 54.5311 78.4634 54.2236 78.5912C53.9161 78.719 53.6373 78.9069 53.4034 79.144C52.9123 79.7014 52.0624 79.7551 51.505 79.264C51.4627 79.2268 51.4228 79.1869 51.3855 79.1446C51.1518 78.9075 50.873 78.7195 50.5657 78.5916C50.2583 78.4637 49.9284 78.3985 49.5955 78.3999C49.0163 78.3887 48.4535 78.592 48.0152 78.9707L45.5367 73.5999H59.4263L56.8068 78.9941Z" fill="#1E1E1E"/>
</g>
<g clip-path="url(#clip2_34_368)">
<path d="M64.2398 28.8352L68.1889 26.9938L64.7907 36.3303L55.4531 32.9326L59.4512 31.0682C55.3861 23.8279 48.6514 19.5871 42.8965 20.4772C43.5647 19.8922 44.3096 19.3997 45.1294 19.0174C51.3195 16.1309 59.5541 20.4886 64.2398 28.8352Z" fill="#1E1E1E"/>
</g>
<g clip-path="url(#clip3_34_368)">
<path d="M27.6219 65.383L26.716 69.6451L35.0488 64.2337L29.6376 55.8997L28.7205 60.2148C20.7513 57.8825 15.1042 52.2744 14.6769 46.4668C14.2572 47.2495 13.9449 48.086 13.7568 48.9709C12.3368 55.6516 18.4351 62.6949 27.6219 65.383Z" fill="#1E1E1E"/>
</g>
</g>
<defs>
<clipPath id="clip0_34_368">
<rect width="80" height="80" fill="white" transform="translate(-0.000976562 0.800049)"/>
</clipPath>
<clipPath id="clip1_34_368">
<rect width="40" height="40" fill="white" transform="translate(39.999 40.8)"/>
</clipPath>
<clipPath id="clip2_34_368">
<rect width="24" height="24" fill="white" transform="translate(51.1428 42.6943) rotate(-115)"/>
</clipPath>
<clipPath id="clip3_34_368">
<rect width="24" height="24" fill="white" transform="matrix(-0.978148 -0.207912 -0.207912 0.978148 38.1797 49.504)"/>
</clipPath>
</defs>
</svg>
