<svg width="80" height="81" viewBox="0 0 80 81" fill="none" xmlns="http://www.w3.org/2000/svg">
<g clip-path="url(#clip0_35_392)">
<path d="M16.4877 14.6304C16.1769 14.6304 15.8788 14.7538 15.6591 14.9736C15.4393 15.1934 15.3158 15.4914 15.3158 15.8022V16.8055C15.3158 17.4527 15.8404 17.9774 16.4877 17.9774C17.1351 17.9774 17.6596 17.4527 17.6596 16.8055V15.8022C17.6596 15.4914 17.5361 15.1934 17.3164 14.9736C17.0966 14.7538 16.7985 14.6304 16.4877 14.6304ZM16.4877 19.2807C16.1769 19.2807 15.8788 19.4041 15.6591 19.6239C15.4393 19.8437 15.3158 20.1418 15.3158 20.4526V21.456C15.3158 22.1032 15.8404 22.6279 16.4877 22.6279C17.1351 22.6279 17.6596 22.1032 17.6596 21.456V20.4526C17.6596 20.1418 17.5361 19.8437 17.3164 19.6239C17.0966 19.4041 16.7985 19.2807 16.4877 19.2807ZM11.6393 32.0079V31.0044C11.6393 30.3572 11.1148 29.8326 10.4674 29.8326C9.82006 29.8326 9.29553 30.3572 9.29553 31.0044V32.0079C9.29553 32.6551 9.82006 33.1797 10.4674 33.1797C11.1148 33.1797 11.6393 32.6551 11.6393 32.0079ZM17.6596 32.0079V31.0044C17.6596 30.3572 17.1351 29.8326 16.4877 29.8326C15.8404 29.8326 15.3158 30.3572 15.3158 31.0044V32.0079C15.3158 32.6551 15.8404 33.1797 16.4877 33.1797C17.1351 33.1797 17.6596 32.6551 17.6596 32.0079ZM22.508 33.1797C22.8188 33.1797 23.1169 33.0563 23.3367 32.8365C23.5564 32.6167 23.6799 32.3187 23.6799 32.0079V31.0044C23.6799 30.3572 23.1554 29.8326 22.508 29.8326C21.8607 29.8326 21.3362 30.3572 21.3362 31.0044V32.0079C21.3362 32.3187 21.4596 32.6167 21.6794 32.8365C21.8992 33.0563 22.1972 33.1797 22.508 33.1797Z" fill="#1E1E1E"/>
<path d="M78.8271 70.5612C73.5177 70.5612 73.1099 67.0161 68.128 66.0734C69.4572 59.0873 74.3638 53.0063 79.62 48.1744C79.7937 48.0147 79.9152 47.8063 79.9685 47.5764C80.0217 47.3466 80.0044 47.106 79.9187 46.8862C79.8331 46.6663 79.683 46.4775 79.4882 46.3443C79.2934 46.2112 79.063 46.1399 78.8271 46.1399H77.6933V31.5818C77.6933 31.271 77.5698 30.9729 77.3501 30.7531C77.1303 30.5334 76.8322 30.4099 76.5214 30.4099H49.9412C49.6304 30.4099 49.3323 30.5334 49.1125 30.7531C48.8928 30.9729 48.7693 31.271 48.7693 31.5818V38.2749H40.0071V16.3977L59.0632 8.70088V15.6607H53.5901C53.2793 15.6607 52.9812 15.7842 52.7614 16.0039C52.5417 16.2237 52.4182 16.5218 52.4182 16.8326V24.6976C52.4182 25.0084 52.5417 25.3064 52.7614 25.5262C52.9812 25.746 53.2793 25.8694 53.5901 25.8694H57.4888C58.1362 25.8694 58.6607 25.3448 58.6607 24.6976C58.6607 24.0504 58.1362 23.5257 57.4888 23.5257H54.762V18.0045H65.7085V23.5257H62.1743C61.5269 23.5257 61.0024 24.0504 61.0024 24.6976C61.0024 25.3448 61.5269 25.8694 62.1743 25.8694H66.8804C67.1912 25.8694 67.4892 25.746 67.709 25.5262C67.9288 25.3064 68.0522 25.0084 68.0522 24.6976V16.8326C68.0522 16.5218 67.9288 16.2237 67.709 16.0039C67.4892 15.7842 67.1912 15.6607 66.8804 15.6607H61.4071V7.75432L64.4999 6.5051C64.7881 6.38871 65.0182 6.16261 65.1397 5.87653C65.2612 5.59045 65.2641 5.26783 65.1477 4.97963C65.0313 4.69144 64.8052 4.46128 64.5191 4.33979C64.2331 4.2183 63.9104 4.21544 63.6222 4.33182L40.0073 13.8699V12.6602C40.0095 11.7035 39.6339 10.7847 38.9623 10.1034L35.2443 6.31479C34.9435 6.00675 34.5574 5.79568 34.1357 5.70867C33.7139 5.62167 33.2758 5.6627 32.8776 5.82651C32.4786 5.98845 32.1371 6.266 31.897 6.6235C31.6569 6.981 31.5292 7.40212 31.5303 7.83275V17.294L28.0223 18.7109C27.8783 18.7676 27.747 18.8522 27.6359 18.96C27.5248 19.0677 27.4362 19.1963 27.3751 19.3385C27.314 19.4807 27.2816 19.6336 27.2799 19.7883C27.2782 19.943 27.3072 20.0966 27.3651 20.2401C27.4231 20.3835 27.5089 20.5141 27.6176 20.6243C27.7263 20.7344 27.8557 20.822 27.9984 20.8818C28.1411 20.9417 28.2942 20.9727 28.449 20.9731C28.6037 20.9735 28.757 20.9432 28.9 20.884L31.5303 19.8216V45.6896L28.1437 44.2971V27.6862C28.1437 26.3146 27.0278 25.1987 25.6562 25.1987H23.4858V12.9391C23.4858 11.5807 22.3806 10.4756 21.022 10.4756H17.6595V7.25963H18.778C19.4253 7.25963 19.9498 6.73494 19.9498 6.08776C19.9498 5.44057 19.4253 4.91588 18.778 4.91588H17.6595V3.17651C17.6595 2.52933 17.135 2.00464 16.4876 2.00464C15.8403 2.00464 15.3158 2.52933 15.3158 3.17651V4.91573H14.1975C13.5502 4.91573 13.0256 5.44041 13.0256 6.0876C13.0256 6.73479 13.5502 7.25947 14.1975 7.25947H15.3158V10.4754H11.9533C10.595 10.4754 9.48969 11.5806 9.48969 12.939V25.1987H7.31938C5.94782 25.1987 4.83189 26.3146 4.83189 27.6862V33.3841C4.83189 34.0313 5.35642 34.556 6.00376 34.556C6.6511 34.556 7.17563 34.0313 7.17563 33.3841V27.6862C7.17563 27.6069 7.24016 27.5424 7.31938 27.5424H25.6559C25.7351 27.5424 25.7997 27.6069 25.7997 27.6862V43.3335L21.6306 41.6193C21.3608 41.5086 21.0719 41.4519 20.7803 41.4522H20.5408V37.2644C20.5408 36.208 19.6814 35.3486 18.625 35.3486H14.3505C13.2941 35.3486 12.4345 36.208 12.4345 37.2644V41.4522H7.17563V38.0696C7.17563 37.4224 6.6511 36.8977 6.00376 36.8977C5.35642 36.8977 4.83189 37.4224 4.83189 38.0696V41.4522H1.17096C0.980346 41.4522 0.79261 41.4987 0.624027 41.5876C0.455444 41.6766 0.311103 41.8053 0.203521 41.9627C0.0959385 42.12 0.0283618 42.3012 0.00665051 42.4906C-0.0150608 42.68 0.0097487 42.8718 0.0789277 43.0494L5.39282 56.697L5.7686 57.6639C5.87944 57.9492 5.93639 58.2525 5.93657 58.5586V65.8758C5.93747 66.8675 6.12704 67.85 6.49517 68.7709C5.10189 69.762 3.74533 70.5612 1.17096 70.5612C0.523614 70.5612 -0.000915869 71.0858 -0.000915869 71.7331C-0.000915869 72.3804 0.523614 72.905 1.17096 72.905C7.87876 72.905 8.35829 68.2175 14.1142 68.2175C20.0192 68.2175 20.1722 72.905 27.0575 72.905C33.9496 72.905 34.0879 68.2175 40.0001 68.2175C45.9049 68.2175 46.0574 72.905 52.9424 72.905C59.8344 72.905 59.973 68.2175 65.8849 68.2175C71.791 68.2175 71.94 72.905 78.8271 72.905C79.4744 72.905 79.9989 72.3804 79.9989 71.7331C79.9989 71.0858 79.4744 70.5612 78.8271 70.5612ZM11.8334 25.1988V12.9391C11.8334 12.8731 11.8872 12.8193 11.9533 12.8193H21.0219C21.0879 12.8193 21.1419 12.8731 21.1419 12.9391V25.1988H11.8334ZM51.1131 46.1399V40.6186H62.0596V46.1399H51.1131ZM64.4033 40.6185H75.3497V46.1397H64.4033V40.6185ZM75.3496 38.2747H64.4032V32.7535H75.3496V38.2747ZM51.1131 32.7535H62.0596V38.2747H51.1131V32.7535ZM48.7693 40.6185V46.1397H40.0071V40.6185H48.7693ZM33.8737 8.26478L37.2892 11.7451C37.5297 11.989 37.6641 12.3179 37.6634 12.6604V46.1399H33.8737V8.26478ZM14.7783 37.6924H18.197V41.4522H14.7783V37.6924ZM20.7598 43.7961L31.3651 48.1561C31.8891 48.3728 32.4507 48.4841 33.0178 48.4836H75.9197C73.7379 50.6861 71.8869 52.9028 70.3941 55.1008H7.28579L2.88486 43.7961H20.7598ZM52.9424 70.5612C47.0363 70.5612 46.8871 65.8737 40.0001 65.8737C33.1012 65.8737 32.9779 70.5612 27.0575 70.5612C21.1508 70.5612 21.0019 65.8737 14.1142 65.8737C11.5492 65.8737 9.85703 66.5601 8.49688 67.3884C8.3542 66.8968 8.2813 66.3875 8.28032 65.8756V63.5678H47.5984C48.2457 63.5678 48.7702 63.0433 48.7702 62.3959C48.7702 61.7486 48.2457 61.2241 47.5984 61.2241H8.28032V58.5583C8.28032 58.1817 8.23626 57.8092 8.14907 57.4442H68.9308C68.1776 58.767 67.5876 60.0117 67.1105 61.2239H52.2838C51.6365 61.2239 51.112 61.7484 51.112 62.3958C51.112 63.0431 51.6365 63.5676 52.2838 63.5676H66.318C66.1012 64.3273 65.9225 65.0972 65.7826 65.8747C58.9926 65.924 58.8209 70.5612 52.9424 70.5612ZM19.1203 76.0514C17.6275 76.0514 17.3531 74.5197 14.8911 74.5197C12.4273 74.5197 12.1587 76.0514 10.6617 76.0514C10.0144 76.0514 9.48985 76.5759 9.48985 77.2233C9.48985 77.8706 10.0144 78.3951 10.6617 78.3951C13.1255 78.3951 13.3941 76.8634 14.8911 76.8634C16.3637 76.8634 16.6784 78.3951 19.1203 78.3951C19.7676 78.3951 20.2922 77.8706 20.2922 77.2233C20.2922 76.5759 19.7676 76.0514 19.1203 76.0514ZM44.2285 76.0514C42.7356 76.0514 42.4613 74.5197 39.9992 74.5197C37.5295 74.5197 37.2728 76.0514 35.77 76.0514C35.1226 76.0514 34.5981 76.5759 34.5981 77.2233C34.5981 77.8706 35.1226 78.3951 35.77 78.3951C38.2334 78.3951 38.5023 76.8634 39.9992 76.8634C41.4921 76.8634 41.7663 78.3951 44.2285 78.3951C44.8759 78.3951 45.4004 77.8706 45.4004 77.2233C45.4004 76.5759 44.8757 76.0514 44.2285 76.0514ZM68.2902 76.0514C66.8176 76.0514 66.5029 74.5197 64.061 74.5197C61.5973 74.5197 61.3287 76.0514 59.8316 76.0514C59.1843 76.0514 58.6598 76.5759 58.6598 77.2233C58.6598 77.8706 59.1843 78.3951 59.8316 78.3951C62.2954 78.3951 62.564 76.8634 64.061 76.8634C65.5538 76.8634 65.8282 78.3951 68.2902 78.3951C68.9375 78.3951 69.4621 77.8706 69.4621 77.2233C69.4621 76.5759 68.9374 76.0514 68.2902 76.0514Z" fill="#1E1E1E"/>
<path d="M61.9135 53.13H64.0608C64.7081 53.13 65.2327 52.6055 65.2327 51.9581C65.2327 51.3108 64.7081 50.7863 64.0608 50.7863H61.9135C61.2661 50.7863 60.7416 51.3108 60.7416 51.9581C60.7416 52.6055 61.2663 53.13 61.9135 53.13Z" fill="#1E1E1E"/>
</g>
<defs>
<clipPath id="clip0_35_392">
<rect width="80" height="80" fill="white" transform="translate(-0.000976562 0.199951)"/>
</clipPath>
</defs>
</svg>
