<svg width="64" height="63" viewBox="0 0 64 63" fill="none" xmlns="http://www.w3.org/2000/svg">
<path d="M63 32.5H59.29L34.55 16.923C37.5466 15.5084 38.8291 11.9325 37.4145 8.93587C37.0025 8.06319 36.3862 7.30275 35.6177 6.71906C34.8492 6.13537 33.9512 5.74566 33 5.583V2.5H36C36.2652 2.5 36.5196 2.39464 36.7071 2.20711C36.8946 2.01957 37 1.76522 37 1.5C37 1.23478 36.8946 0.98043 36.7071 0.792893C36.5196 0.605357 36.2652 0.5 36 0.5H28C27.7348 0.5 27.4804 0.605357 27.2929 0.792893C27.1054 0.98043 27 1.23478 27 1.5C27 1.76522 27.1054 2.01957 27.2929 2.20711C27.4804 2.39464 27.7348 2.5 28 2.5H31V6.5C31 6.76522 31.1054 7.01957 31.2929 7.20711C31.4804 7.39464 31.7348 7.5 32 7.5C34.2091 7.5 36 9.29087 36 11.5C36 13.7091 34.2091 15.5 32 15.5C29.7909 15.5 28 13.7091 28 11.5C28 11.2348 27.8946 10.9804 27.7071 10.7929C27.5196 10.6054 27.2652 10.5 27 10.5C26.7348 10.5 26.4804 10.6054 26.2929 10.7929C26.1054 10.9804 26 11.2348 26 11.5C26.0015 12.6381 26.3267 13.7522 26.9376 14.7124C27.5485 15.6726 28.4198 16.4393 29.45 16.923L4.71 32.5H1C0.734784 32.5 0.48043 32.6054 0.292893 32.7929C0.105357 32.9804 0 33.2348 0 33.5L0 61.5C0 61.7652 0.105357 62.0196 0.292893 62.2071C0.48043 62.3946 0.734784 62.5 1 62.5H63C63.2652 62.5 63.5196 62.3946 63.7071 62.2071C63.8946 62.0196 64 61.7652 64 61.5V33.5C64 33.2348 63.8946 32.9804 63.7071 32.7929C63.5196 32.6054 63.2652 32.5 63 32.5ZM32 17.682L55.534 32.5H8.466L32 17.682ZM62 60.5H2V34.5H62V60.5Z" fill="#1E1E1E"/>
<path d="M32 35.5C31.7348 35.5 31.4804 35.6054 31.2929 35.7929C31.1054 35.9804 31 36.2348 31 36.5V58.5C31 58.7652 31.1054 59.0196 31.2929 59.2071C31.4804 59.3946 31.7348 59.5 32 59.5C32.2652 59.5 32.5196 59.3946 32.7071 59.2071C32.8946 59.0196 33 58.7652 33 58.5V36.5C33 36.2348 32.8946 35.9804 32.7071 35.7929C32.5196 35.6054 32.2652 35.5 32 35.5ZM27 35.5C26.7348 35.5 26.4804 35.6054 26.2929 35.7929C26.1054 35.9804 26 36.2348 26 36.5V58.5C26 58.7652 26.1054 59.0196 26.2929 59.2071C26.4804 59.3946 26.7348 59.5 27 59.5C27.2652 59.5 27.5196 59.3946 27.7071 59.2071C27.8946 59.0196 28 58.7652 28 58.5V36.5C28 36.2348 27.8946 35.9804 27.7071 35.7929C27.5196 35.6054 27.2652 35.5 27 35.5ZM22 35.5C21.7348 35.5 21.4804 35.6054 21.2929 35.7929C21.1054 35.9804 21 36.2348 21 36.5V58.5C21 58.7652 21.1054 59.0196 21.2929 59.2071C21.4804 59.3946 21.7348 59.5 22 59.5C22.2652 59.5 22.5196 59.3946 22.7071 59.2071C22.8946 59.0196 23 58.7652 23 58.5V36.5C23 36.2348 22.8946 35.9804 22.7071 35.7929C22.5196 35.6054 22.2652 35.5 22 35.5ZM17 35.5C16.7348 35.5 16.4804 35.6054 16.2929 35.7929C16.1054 35.9804 16 36.2348 16 36.5V58.5C16 58.7652 16.1054 59.0196 16.2929 59.2071C16.4804 59.3946 16.7348 59.5 17 59.5C17.2652 59.5 17.5196 59.3946 17.7071 59.2071C17.8946 59.0196 18 58.7652 18 58.5V36.5C18 36.2348 17.8946 35.9804 17.7071 35.7929C17.5196 35.6054 17.2652 35.5 17 35.5ZM12 35.5C11.7348 35.5 11.4804 35.6054 11.2929 35.7929C11.1054 35.9804 11 36.2348 11 36.5V58.5C11 58.7652 11.1054 59.0196 11.2929 59.2071C11.4804 59.3946 11.7348 59.5 12 59.5C12.2652 59.5 12.5196 59.3946 12.7071 59.2071C12.8946 59.0196 13 58.7652 13 58.5V36.5C13 36.2348 12.8946 35.9804 12.7071 35.7929C12.5196 35.6054 12.2652 35.5 12 35.5ZM7 35.5C6.73478 35.5 6.48043 35.6054 6.29289 35.7929C6.10536 35.9804 6 36.2348 6 36.5V58.5C6 58.7652 6.10536 59.0196 6.29289 59.2071C6.48043 59.3946 6.73478 59.5 7 59.5C7.26522 59.5 7.51957 59.3946 7.70711 59.2071C7.89464 59.0196 8 58.7652 8 58.5V36.5C8 36.2348 7.89464 35.9804 7.70711 35.7929C7.51957 35.6054 7.26522 35.5 7 35.5ZM37 35.5C36.7348 35.5 36.4804 35.6054 36.2929 35.7929C36.1054 35.9804 36 36.2348 36 36.5V58.5C36 58.7652 36.1054 59.0196 36.2929 59.2071C36.4804 59.3946 36.7348 59.5 37 59.5C37.2652 59.5 37.5196 59.3946 37.7071 59.2071C37.8946 59.0196 38 58.7652 38 58.5V36.5C38 36.2348 37.8946 35.9804 37.7071 35.7929C37.5196 35.6054 37.2652 35.5 37 35.5ZM42 35.5C41.7348 35.5 41.4804 35.6054 41.2929 35.7929C41.1054 35.9804 41 36.2348 41 36.5V58.5C41 58.7652 41.1054 59.0196 41.2929 59.2071C41.4804 59.3946 41.7348 59.5 42 59.5C42.2652 59.5 42.5196 59.3946 42.7071 59.2071C42.8946 59.0196 43 58.7652 43 58.5V36.5C43 36.2348 42.8946 35.9804 42.7071 35.7929C42.5196 35.6054 42.2652 35.5 42 35.5ZM47 35.5C46.7348 35.5 46.4804 35.6054 46.2929 35.7929C46.1054 35.9804 46 36.2348 46 36.5V58.5C46 58.7652 46.1054 59.0196 46.2929 59.2071C46.4804 59.3946 46.7348 59.5 47 59.5C47.2652 59.5 47.5196 59.3946 47.7071 59.2071C47.8946 59.0196 48 58.7652 48 58.5V36.5C48 36.2348 47.8946 35.9804 47.7071 35.7929C47.5196 35.6054 47.2652 35.5 47 35.5ZM52 35.5C51.7348 35.5 51.4804 35.6054 51.2929 35.7929C51.1054 35.9804 51 36.2348 51 36.5V58.5C51 58.7652 51.1054 59.0196 51.2929 59.2071C51.4804 59.3946 51.7348 59.5 52 59.5C52.2652 59.5 52.5196 59.3946 52.7071 59.2071C52.8946 59.0196 53 58.7652 53 58.5V36.5C53 36.2348 52.8946 35.9804 52.7071 35.7929C52.5196 35.6054 52.2652 35.5 52 35.5ZM57 35.5C56.7348 35.5 56.4804 35.6054 56.2929 35.7929C56.1054 35.9804 56 36.2348 56 36.5V58.5C56 58.7652 56.1054 59.0196 56.2929 59.2071C56.4804 59.3946 56.7348 59.5 57 59.5C57.2652 59.5 57.5196 59.3946 57.7071 59.2071C57.8946 59.0196 58 58.7652 58 58.5V36.5C58 36.2348 57.8946 35.9804 57.7071 35.7929C57.5196 35.6054 57.2652 35.5 57 35.5Z" fill="#1E1E1E"/>
</svg>
